<?xml version="1.0" encoding="UTF-8" standalone="no"?>
<!DOCTYPE svg PUBLIC "-//W3C//DTD SVG 1.1//EN" "http://www.w3.org/Graphics/SVG/1.1/DTD/svg11.dtd">
<svg width="122px" height="72px" version="1.1" xmlns="http://www.w3.org/2000/svg" xmlns:xlink="http://www.w3.org/1999/xlink" xml:space="preserve" xmlns:serif="http://www.serif.com/" style="fill-rule:evenodd;clip-rule:evenodd;stroke-linejoin:round;stroke-miterlimit:2;">
    <g transform="matrix(1,0,0,1,-95.9324,0)">
        <g id="_650442832" transform="matrix(1,0,0,1,68.6422,-5.472)">
            <g id="Layer_x0020_1">
                <g id="_6504428321" serif:id="_650442832">
                    <g transform="matrix(1,0,0,1,-115.702,26.208)">
                        <path d="M154.872,20.736L190.224,20.736C193.752,20.736 188.712,32.544 185.472,32.904C188.064,35.496 183.24,44.424 179.64,44.784L142.992,44.784L145.008,40.824L150.12,40.824L157.968,24.84L152.856,24.84L154.872,20.736ZM162,34.56L158.976,40.824L176.112,40.824C178.488,40.824 181.512,34.56 179.208,34.56L162,34.56ZM166.824,24.84L163.8,31.032L181.008,31.032C182.808,31.032 185.688,24.84 184.104,24.84L166.824,24.84Z" style="fill:rgb(40,40,41);"/>
                    </g>
                    <g transform="matrix(1,0,0,1,14.5036,-15.264)">
                        <path d="M23.184,44.784L36,44.784L40.68,35.208L65.664,35.208C70.92,35.208 75.672,20.736 72.864,20.736L35.064,20.736L32.976,24.912L38.016,24.912L30.168,40.824L25.128,40.824L23.184,44.784ZM45.792,24.912L42.408,31.752L62.568,31.752C64.08,31.752 68.184,24.912 65.88,24.912L45.792,24.912Z" style="fill:rgb(40,40,41);"/>
                    </g>
                    <g transform="matrix(1,0,0,1,14.5036,-15.264)">
                        <path d="M73.584,28.728L85.824,28.728L79.848,40.824L92.304,40.824L96.768,31.752L91.872,31.752L93.384,28.728L121.68,28.728C127.656,28.728 119.736,44.784 113.76,44.784L97.416,44.784L94.248,51.264L82.296,51.264L84.096,47.52L88.992,47.52L90.36,44.784L65.664,44.784L67.608,40.824L72.288,40.824L76.752,31.752L72.144,31.752L73.584,28.728ZM103.824,31.752L116.784,31.752C120.168,31.752 115.632,40.824 112.32,40.824L99.36,40.824L103.824,31.752Z" style="fill:rgb(40,40,41);"/>
                    </g>
                    <g transform="matrix(1,0,0,1,14.5036,-15.264)">
                        <path d="M81.216,22.752L78.696,27.792L86.256,27.792L88.776,22.752L81.216,22.752Z" style="fill:rgb(40,40,41);"/>
                    </g>
                    <g transform="matrix(1,0,0,1,-115.702,26.208)">
                        <path d="M198.576,27.864L220.32,27.864C223.56,27.864 216.792,44.784 211.968,44.784L190.224,44.784C186.984,44.784 195.696,27.864 198.576,27.864ZM201.888,31.032L215.136,31.032C217.224,31.032 212.256,40.824 210.312,40.824L197.064,40.824C195.84,40.824 200.52,31.032 201.888,31.032Z" style="fill:rgb(40,40,41);"/>
                    </g>
                    <g transform="matrix(1,0,0,1,-115.702,26.208)">
                        <path d="M227.52,27.864L244.008,27.864L242.496,31.032L237.096,31.032L238.752,39.96L252.864,31.032L247.824,31.032L249.336,27.864L264.816,27.864L263.304,31.032L259.416,31.032L228.384,50.832C228.024,51.048 227.448,51.264 226.872,51.264L221.832,51.264L223.632,47.52L226.944,47.52L234.216,42.912L232.056,31.032L225.936,31.032L227.52,27.864Z" style="fill:rgb(40,40,41);"/>
                    </g>
                </g>
            </g>
        </g>
    </g>
</svg>
